# xmcd
#
# Track frame offsets: 
#        150
#        17455
#        31455
#        46628
#        69258
#        78916
#
# Disc length: 1249 seconds
#
# Revision: 0
# Processed by: cddbd v1.5.2PL0 Copyright (c) Steve Scherf et al.
# Submitted via: ExactAudioCopy v1.0b3
#
DISCID=3604df06
DTITLE=El Fish - Blue Coffee Sampler
DYEAR=1996
DGENRE=Blues
TTITLE0=Rail Roll Love song
TTITLE1=People in Traffic
TTITLE2=Lucky
TTITLE3=Lack of Time
TTITLE4=Major Blue
TTITLE5=Sahara Caravan
EXTD=
EXTT0=
EXTT1=
EXTT2=
EXTT3=
EXTT4=
EXTT5=
PLAYORDER=
